<?xml version="1.0" encoding="UTF-8"?><svg id="b" xmlns="http://www.w3.org/2000/svg" viewBox="0 0 979 422.7"><defs><style>.e,.f{fill:none;}.g{fill:#009344;}.h{fill:#fff;}.i{fill:#cf2834;}.f{stroke:#000;stroke-linejoin:round;stroke-width:.6px;}</style></defs><g id="c"><g id="d"><path d="m380.9,383.7c-3.4-.3-9.4-1.7-11.3-3.1s-4.4-3-4.5-6.2c0-3.3,3.6-6.7,6.9-8.2,1.6-.7,2-.9,3.6-1.5,4.8-1.7,10.3-3.3,15.9-4.9,15-4.1,29.1-8.5,44.2-12.6s32.8-8.4,48.8-12.4c31.7-7.8,63.7-15.4,95.7-21.8,34.3-6.9,64.6-12.2,98.9-18,21.6-3.8,47.6-7.9,69.3-11.3,23-3.6,45.9-7.5,68.9-11,10.6-1.6,21.4-2.9,32-4.5,5.9-.9,11.8-1.6,17.5-2.4,9.7-1.3,19.3-2.6,29.4-3.9,1.1-.1,3.4-.5,5-.7-.4,4.7-2.7,7-5,8.6-1.2.8-3.4,1.8-5.9,2.4-3.9,1-8.8,1.7-11.3,2.2-5.8,1.1-11.5,2.3-18.9,3.6-17.2,3.1-39,6.7-59.8,10.4-8,1.4-35.3,6.5-38.4,7-37.4,6.8-74.3,13.4-111.6,20.9-22.6,4.5-34.6,6.8-51.3,10.4-15.1,3.2-30.9,6.7-49.6,10.9-16,3.5-45.1,10.9-60.9,15.2-13.3,3.6-26.4,7.4-39.4,12-12.6,4-23.3,9.2-35.5,15-4.7,1.8-7.3,2.8-15,3.7s-11.8.4-17.6,0Z"/><path d="m252.2,328.7c-1.3.1-2,2.4-2.7,5s-2.4,10.8-3.6,16-3.1,14.8-4.5,22.6c-.4,2.2-2.2,12.4-3.2,19.6s-1,12-1,12.6c.1,2.6.5,3.5.8,7.9.3,4.5-1.1,7.7-4.3,9.4-3.8,2-7.5,0-8.2-4.6-.9-4.7-.4-8.8-.2-10.9s.3-2.8.5-4.5c.3-2.9.9-6.3,1.3-9.4s1.1-8,1.7-11.8c1.5-9.5,3.3-18.9,5-27.7s3.9-17,5.6-25.1c.6-2.5,1-4.4,1.7-6.7s2.5-8.1,3.4-9.7c1.9-3.6,2.9-5,5-5.8s5.5-.5,7.6.9c1.5.9,2.5,1.8,3.5,2.7s2.6,2.8,3.9,4.4c1.3,1.7,2.7,3.8,4.2,5.9s3.4,4.7,4.8,6.6c3.6,5,7.8,10,11.5,14.8,1.4,1.8,4.1,4.6,6.3,7s1.3,1.5,1.9,2c1.6,1.5,2.3,1.8,2.8,1.8,1.2-.2,1.2-2.7.9-4.3-.8-4.6-1.6-9.5-3.6-13.6-1.2-2.4-2.8-4.5-4.8-6.6-5.9-6.2-8.7-15.8-9.8-24-.6-4.2-.4-3.7-.4-8,.1-2.5.9-4.4,1.2-5.2.7-1.8,1.7-3.4,3.6-5.3,1.8,0,5.2.5,6.8,1.5,1.6,1,2.3,1.9,3.2,3.2,1,1.5,2.8,6.2,4.5,11.6,2.3,7.3,4.7,16.6,5,17.2.4,1.1.8,2.6,2.3,5.5s1.6,2.7,1.8,3.1c.4.9.8,1.6,1.1,2.1,1.1,2.2,1.4,4.4,1.3,6.5-.2,2.3-.9,4.9-1,7.9-.1,4.4.4,9.2.4,12.7,0,5.3-.8,10.6-3.7,14.3-3,3.7-7.3,4.5-11.9,1.7-4.6-2.9-7.1-5.8-11.3-9.5-10.2-9-17.6-19.2-25.2-30.4-.8-1.2-2.8-4-4.1-3.9Z"/><path d="m607.3,242.5c0-.2,0-.4,0-1.1s-.5-1.6-.6-2.6,0-1,0-1.7,0-2.1,0-2.8c0-1.1,0-2.2.1-3.2s.5-2,1.1-3.3,2.3-4.2,3-5.1.2-.3.4-.5.4-.3.7-.5c.6-.5,1.5-1.4,1.9-1.9s1.1-1.2,2.2-1.7,2.9-1.1,3.8-1.4c1.4-.4,3.6-1.1,4.2-1.3s1.7-.6,2.4-1,.7-.3,1.1-.5c.6-.2,1.2-.4,2-.4,1.7,0,3.2.3,4.5,1s3.3,2.4,4,4.2.6,2.1.5,3.3-.5,1.8-1.2,3-2.3,4.3-3.4,6.2-1.3,2.4-1.8,3.5c-.2.3-.5,1-.8,1.6-.6.9-.9,1.3-1.8,2.2s-2.3,1.3-3.6.8-1.1-.6-1.6-1.1-.7-.9-.9-1.3c-.6-1-.4-1.9-.4-2.1,0-.5,0-1.5.4-2.4s.3-.7.6-1.2c.4-.7,1.3-1.4,1.8-2s.7-1.2.8-1.6c-.4-.7-1.6-1.7-3.2-2-.6-.1-1.1-.2-2.2-.2s-1.7.2-2.2.3,0,0,0,0c0,1,0,1.7,0,2.8,0,1.6.3,4.3.9,6.1s.5,1.3.9,2.2,1.3,2.3,2.1,3.5c1.2,1.9,2.7,3.9,3.5,5.1s.6.9.9,1.4,1.1,1.3,1.7,1.8,1.1,1.6,1.6,2,1.6.4,2,.4c0,0,.5-.7,1.2-1.8s2.7-3.8,3.2-4.6.8-1.2,1.1-1.7.5-1,.9-1.4,1-1.1,1.4-2.3.8-3.5,1.1-5.2.4-2.8,1.1-3.7c.7-1,2.2-1.2,3.7-.5s2.7,2.7,3,4.8c.3,2.4,0,4.1-.5,6.3s-1.5,4.4-2.6,6c-1.2,2-2.4,3.9-3.6,5.9-.7.9-1.8,1.8-2.3,2.6s-.7,1-1,1.9,0,0,0,0c.3.4.4.5,1.1,1.2s.6.5,1.2.9,1.4.8,2,1,.6.3,1.1.6.3.2.5.4.2.1.3.2,0,0,.1,0c1,.3,2,.9,3,1.3s.7.2,1.3.3,1.3,0,2.2,0,2.6-.1,3.4,0c1.4,0,2,.6,2.3,1.1s.2.5.2.9c.1,1.2-.2,3-1.2,4.3s-.3.4-.6.7c-.6.5-1,.8-1.9,1.7s-2.5,2.3-3.9,3.5-1.6,1.5-2.1,1.9c-.3.3-.8.4-1.2.5-1.2.3-2.4.1-3.5,0s-3.2-.9-4.7-1.6c-1.4-.7-3.1-1.5-4.6-2.3-2.6-1.4-4.9-2.8-6.8-4.1-1,.6-1.9,1.5-2.9,2.4s-1.7,1.8-2.6,2.5c-1.8,1.4-3.6,2.5-5.2,3.6-2.5,1.7-4.8,3.4-7.7,5.2-4.4,2.8-7.8,3.9-10.9,4.6-3.1.7-5.6,1-8.3.6-4.1-.8-5.9-4.4-5.9-4.4,0,0-1-4.9-1.4-7,0-1.7.4-2.6.7-3.8.3-.9.8-2,1.3-3,.9-1.9,2.1-3.8,3.1-5.4s1.3-2.1,1.9-2.9c1.3-1.6,2.1-3.1,3.4-4.7s.4-.4.6-.6.6-.4,1.1-.9c.7-.7,1.9-2.7,2.4-3.6s4.3-4.3,6.5-6.6,1.2-1,1.9-1.7,1.4-1.4,1.4-1.7Zm12.7,21.3c-.2-.7-.3-.9-.6-1.3-.9-1.1-1.3-1-1.8-1.6-1.5-1.8-2.7-3.6-4.2-5.4,0,0-.5-1.3-1.2-2.1s-1.3-1-2.1-.7-.6.4-.9.8c-.6.8-.8,1.4-1.2,2s-.4.6-.6.9c-.7,1-1.7,1.8-2.7,3s-1.2,1.4-1.9,2.8-1.1,2.1-1.6,3.2-.9,1.8-1.3,2.7-.5,1.9-.5,2.9c0,1.2.3,3.1,1,3.8.6.5,1.2.5,1.9.5s1.2,0,2.2-.3c1.8-.7,2.4-.9,4.8-2.3s3.3-2.2,4.1-2.8c.5-.4,1-.9,1.5-1.4s1.1-.8,1.7-1.2c1.3-1.1,3.2-2.9,3.5-3.3Z"/><path d="m742,245.9c-.7,1-2.1,3.5-3,5-.4.6-.7,1.4-.8,1.6-.4.6-.9,1.5-1.6,2.8s-.7,1.3-1.1,1.9-.7,1.1-1,1.6c-.8,1.5-1.6,2.5-3.5,4.3s-2.8,2-3.1,2.2c-.7.4-1.3.7-1.7,1-1,.6-2.1,1.3-3.5,1.2s-1.7-.5-2.6-1.1c-1.3-1-2.5-2.2-3-3.7s-.2-2.7-.1-3.1c.2-1,.4-1.6.5-2.1s.4-.9.4-1c.1-.5.2-1.2.3-1.7s.3-1.1.5-1.5.3-.9.5-1.2.4-.9.5-1.6c.2-.8.5-1.5.7-2.3s0-.4,0-.6c0-.3,0-.7,0-1s-.1-.7-.1-.9c0,0,0,0,0,0,0,0-.2.2-.5.4s-.2.2-.3.3-.2.2-.3.3c-.3.4-.6.8-.8,1.1-.4.6-.8,1.4-.9,1.6s-.3.6-.5,1c-.4.8-.8,1.5-1,1.7-.2.4-.7,1.2-1.1,1.7-.6.9-.9,1.5-1.6,2.5s-.7,1.2-.8,1.5-.4.8-.7,1.2c-.6,1-1.2,1.9-1.7,2.7-.7,1.2-1.3,2.2-1.5,2.5s-.5.8-.8,1.1-.6.6-.7.7c-.3.3-.5.4-.7.6-.7.6-1.5,1-2.2,1.5s-1.1.8-1.7,1.1c-1.3.8-2.5,1.6-3.6,2.1s-.9.4-1.3.5c-3.1,1.1-5.9-.3-6.9-2.9s0-5.7,0-6.1c.3-1.6,1-3.3,1.2-4.5s.2-1.2.3-1.5c.3-.7.4-.7.9-1.8s.3-.7.4-1.1c.3-.7.4-1.6.7-2.5.2-.7.4-1.4.6-2s.3-1,.4-1.4c.6-2.3,1.3-4.7,1.9-7.2s.7-2.5,1-3.6.4-2.2.7-3.2c.8-3.2,1.5-5.6,1.8-6.4.9-2.1,1-2.7,1.9-3.6,1.3-1.3,3-2.2,3.7-2.3,1.1-.3,2.7-.8,4.2-.5s2.3,1.3,3,2.3c1.3,1.7,1.7,3.5,1.7,4.9-.6,2.1-1.5,5.9-1.8,6.9-.5,1.4-1,2.6-1.3,3.4-.7,1.7-.9,2.9-1,3.5-.1.5-.2,1.6-.2,1.9,0,0,0,0,0,0,0,0,.3-.2.6-.4.5-.3,1-.7,1.3-1,.4-.5.6-1,.9-1.4s.5-.8.7-1.1c.3-.6.5-.9.7-1.4s.6-1.1.8-1.5c.6-.9,1.1-1.7,1.2-1.9s.5-.6.7-.9c.4-.6.8-1.1,1.2-1.6.5-.7.9-1.3,1.4-1.9.8-1.1,1.5-2.2,2.4-3.3.4-.6.9-1.3,1.3-1.9s.9-1.2,1.4-1.9c.3-.4,1.5-1.7,1.9-2,.5-.5.8-.9,1.3-1.2.8-.7,1.7-1.2,2.5-1.4,1.2-.4,2.6-.3,3.7.4s2.1,2.1,2.6,3.5.5,2.8.4,3.7c-.1,1.7-.5,3.5-.9,5.2s-.5,2.9-.6,3.2c-.1.7-.4,2.3-.6,3.3,0,.4-.2,1.2-.2,1.9s0,1,0,1.2c0,0,0,0,0,0,0,0,.3-.2.4-.2.3-.1.5-.2.7-.4.3-.4,1.1-1.5,1.4-2s1.1-1.6,1.7-2.4c.2-.3.9-1.3,1.5-2.2s1.3-1.6,1.8-2.2.6-.9.7-1c.3-.4.5-.8.7-1.1s.5-.7.7-.9.5-.5.8-.8.5-.5.5-.6c.2-.4.4-.9.5-1.2s0-.3,0-.4c0-.2,1.1-1.4,1.6-2,.8-1,1.4-1.7,1.7-2.1,1.3-1.4,1.7-2,2.8-2.9s.9-.5,1.3-.8c1.4-.8,2.7-.9,3.9-.4s2.4,2.8,2.7,3.5c.5,1,.9,2.9,1.1,4.5.2,2.4,0,4.8,0,5.9-.2,1.9-.9,4.3-.9,5.4s-.3,2.5-.5,3.4-.3,1.6-.5,2.3c-.6,2.7-.6,4.8-.2,7.2s.2.7.3.9.2.5.3.7c0,.1.1.3.3.5.2.4.5.8.6,1.1.1.2.2.5.3.8s.1.8.1,1c0,.9,0,1.5,0,1.9s-.1.6-.2.9c-.2.6-.6,1.1-1.2,1.4-.2.1-.4.2-.7.4-.4.2-1,.4-1.4.6s-.8.3-1.2.5c-1.1.5-2.3,1.4-3,2.1s-.4.4-.6.5c-.8.7-1.2,1.1-1.5,1.5s-1.3,1.1-2,1.4c-.4.2-.8.3-1,.3-.5,0-1.9,0-2.6,0s-.8,0-1.2-.2-.8-.2-.9-.2c-1.6-.5-3-1.5-3.5-2.8s-.5-2-.4-2.9c.4-3.6,1.2-7,1.7-9.5s.7-4.1.7-4.1c0,0,.3-1.3.3-1.8s.2-1.1.2-1.1c0,0,0,0,0,0s-.6.2-.7.2-.3.2-.3.3,0,.2,0,.4c-.2.5-.3.8-.5,1.1Z"/><path d="m839.5,217.7c.2-.1.8-.6,1.7-1.6s2.4-2.5,3.7-3.8,1.6-1.3,2.1-1.8c.9-.7,2.3-1.5,3.9-1.9s2.3-.2,3.6.4.9.5,1.4.8c.8.7,1.4,2,1.6,3.1,0,.4.1.7.2,1.1.3,2.6.1,4,0,6.6-.2,2.9-.8,5.6-1.2,8.8s-.7,5.9-.8,8.5c0,1.2-.1,3.5.3,4.8s1.4,2.8,2.1,3.8,1.3,1.6,1.3,2.9-1.1,2.8-2.5,3.8-2.8,1.9-4.6,2.8-2,1.1-3.2,1.3-2.3.7-4.9-.4c-2.6-1.1-4.5-3.8-4.8-7.5-.4-4.8.5-9.2,1.2-12.1s1.2-4.6,1.6-6.8c.2-1.1.4-2.7.1-3.1s-.3-.7-1-.3-1.5,1.4-2.4,2.5-3.4,4.6-5.8,8.9-4.2,7.8-6.1,11c-.7,1.1-1.3,2.2-2.2,3s-1.9,1.3-2.9,1.8-2.8,1.4-4.6,1.4c-2.3,0-3.9-1.7-4.1-4.3s.5-4.9,1.2-7.3c.7-2.5,1.6-4.4,2.3-6.9,1.4-4.6,2.3-10.4,3.5-14.7s3.3-10.7,5.9-18.6,2.4-7.2,3.5-10.4,2.4-7.1,4.2-11.4,1.3-3.2,1.9-4.5c1-1.9,2-2.7,3.7-3.8s3.5-2.1,4.5-2.6,1.9-1,3-1.3c2.5-.6,5,.3,5.1,3.8,0,2.6-.9,5.9-1.9,8.8-3.4,10.3-6.9,20.6-10.3,30.8-.1.4-.3.8-.5,1.4-.3.9-.6,1.8-.5,2.4,0,.8.4.8.9.5Z"/><path d="m374.5,317.4c.5-2,2.3-6.3,5.8-11.2,1.6-2.2,3.6-4.5,5.6-6.8s2.1-1.9,3-2.8,2.7-2.4,2.3-4.1-1-2.1-2.9-4-5.8-5.4-9.3-7.8-2.5-1.6-5.1-2.3-6.4-1-9-1.3c-1.2-.1-3-.5-3.6-1.4s-.5-.9-.3-1.8.3-1,.5-1.6c.7-1.6,1.5-2.6,2.7-3.8s1.7-1.5,3-2.3,2-1.1,2.7-1.4c1.8-.7,3.7-1.3,5.6-1.4s3.6.3,5.2.6c7,1.4,12.6,4.2,17,7.9,7.4,6.2,11.7,15.2,13.6,26.3.6,3.8.9,7.5.7,11.1s-1.2,8.1-2.6,12.1-3.9,8.9-7.1,13.1c-2.3,3-5,5.9-8.2,8s-4.4,2.5-6.9,2.9c-3.1.5-5.7-.2-7.8-1.6s-3.9-3.8-4.9-7c-.4-1.3-.8-3.3-1-5.1s-.3-2.6-.3-5.2c-.1-4.1.2-5.5,1.2-9.3Zm16.8,13.2c.7,0,1.3,0,2-.2,1.2-.5,2.3-1.5,3.3-2.7s1.2-1.8,1.7-2.7c1.4-3.2,2.2-7.4,2-11.4s-.7-4.9-1.3-7-1-3.3-1.6-4.4c-1.9.9-6.1,11.3-7.3,19.1-.4,3-.4,4.8-.2,6.1.4,2.2,1.2,2.9,1.3,3.2Z"/><path d="m321.8,327.8c0-1.2.3-4.2.9-6.3s.9-2.5,1.6-3.7,1-1.7,1.6-2.6c.8-1.2,1.6-2.1,2.4-2.9s1.7-1.6,2.8-2c1.5-.5,3.2-.5,4.7.1s1.6.9,2.3,1.5c.4.4,1,1,1.5,2,.8,1.5,1,2.4,1.3,4.3.2,1.5-.3,5.8-.4,7.5-.3,3.5-.6,4.8-1,7.8-.1,1-.2,1.8-.3,2.5-.1,1.2-.2,2.2-.2,3.7,0,.5,0,2,.5,2.2.5.4,1-.8,1.2-1.1s.9-2.4,1.3-3.7c.3-1.3.7-2.6,1-3.9s.5-2.1.7-3.1c1-4.1,2.6-11.8,2.6-11.8,0,0,.2-1.8,1.2-4s1.4-2.8,2.4-4.2,1.8-2.3,3.5-3.1,2.8-.8,4-.4c.5.2.9.4,1.3.7,1.4,1.1,2.2,2.6,2.9,4.1s.7,1.9,1.2,3.9c.8,3.2,1,5.5,1.4,8.5.3,2,.7,5.4.9,7s.5,3.2,1,4.4c.7,1.9,1.6,3.4,2.3,4.9,1,2,1.2,3.3.6,5.4-.7,2.5-2.8,5.6-4.6,7.4-.8.8-1.7,1.3-2.6,1.6s-1.6.3-2.2.2c-1.2,0-3.3-.9-4.4-1.8-.3-.3-.9-.8-1.3-1.7s-.8-1.8-1.1-2.8-.5-2.1-.7-3.2-.4-2.5-.7-3.9-.4-1.1-.7-1-.5.7-.8,1.3-.5,1.2-.7,1.6c-.4,1.1-.9,2.1-1.3,3.2-.8,1.9-1.8,4.6-2.8,6.4s-1.6,2.4-2.9,3.8-2.6,2.9-3.7,4.1-1.8,1.8-2.6,2.5-.5.3-.7.4c-.6.3-1.4.4-2.7.3s-1.5-.3-2.1-.5-1.2-.5-2.2-1.1c-1.6-1-3.8-3.1-4.4-5.2-.6-2.5-1.1-5.4-1.2-7s-.3-4.2-.3-4.2c0,0-.3-5.5-.3-10.9s.2-6.4.3-7.6Z"/><path d="m503.9,288.8c.3-3.1.6-7.5,1-11.2.2-1.9.2-4,.4-6s.5-3.3.9-4.7c.7-3.1,3-5.1,5.5-6.5s4.3-2,6.7-1.5c1.8.4,3.5,1.9,4,3.6s.1,2,0,3.3c-.2,1.4-1.4,4.1-2,6.2s-.3,2.7-.1,2.8.4-.2.8-.8c.6-1,1.4-2.5,1.7-3.2.5-1.1.9-1.7,1.3-2.6.8-1.6,1.5-3.2,2.3-4.6,1.2-2,2.2-3.4,3.5-5s2.8-3.4,4.5-4.3,3.5-1,5.1-.6c3.2.8,4.9,4.1,5.8,7.3,0,.3.8,3,.8,8.7,0,2.9-.3,6.9-.3,9.3s.1,3.7.2,4.5c.2,1.7.6,2.9,1.3,4.3.5,1.2,1.3,2.3,1.6,3.2.6,1.3-.7,3.7-2.1,5.6s-2,2.3-3.5,3.6-5.4,3.9-9,2.1c-1.9-.9-3-2.8-3.7-4.8s-1.1-3.9-1.1-5.6c0-1,0-1.3.2-3.5,0-.7.2-1.6.2-2.8.2-2.6.4-4.6.6-6.1s.2-3.1.1-3.5c0-.6-.4-.5-.8,0-.5.7-1.2,2-1.4,2.6-1.5,3.1-3.1,6.8-4.2,9.5s-4.4,11.3-4.6,11.8c-.3.9-1.3,4.2-5.5,7.7s-7.9,1.4-8.8,0-1.7-3.2-1.7-7.1c0-4.7.2-8.5.5-11.6Z"/><path d="m452.6,300c-.1.6-.6,2.4-1.3,4.1s-1.8,3.8-3.1,5.5c-2.4,3.3-5.1,5.9-5,7s3.6,1.4,6.5.4,2.4-1.2,3.2-2c1.3-1.1,3.3-3.4,4.8-4.1,1.3-.5,3.1-.4,4,.3.9.8,1.2,3.1.6,4.2,0,1.5-2.1,4.2-4.5,6.6-1.4,1.4-2.7,2.5-4.4,3.5-3.6,2.2-7.3,3.2-11.4,3.6-2.9.4-6.3,1-9.1,1.3-1.2.1-2.7.3-3.5.1s-1.5-.5-2.2-.8c-1.9-1-3.4-2.6-4.6-4.7-2.3-3.6-3.3-9.8-2.7-14.5.8-9.1,3.2-16.2,7.9-22.9s6-7.7,9.8-10.7c7-5.4,13.6-2.1,15.2,6.4.3,1.6.3,4.3.3,7.2s.2,2.5.1,3.9,0,2.6-.6,5.4Zm-10.1-11.5c-3.6,0-5.5,8.8-5.8,14s.2,5.1,1.3,5.7c.9-1.3,2.4-4.4,2.8-5.2s1-2.2,1.4-3.5.7-2.9.9-4.3c.5-3,.5-5.5-.6-6.7Z"/><path d="m483.6,302.5c1.3.2,3-.9,3.8-1.7,1.4-1.2,2.4-2.5,2.6-2.7.2-.3,1.3-1.6,1.9-2.3s1.6-1.6,2-1.9c.7-.5,1.3-.9,2.1-1.1s1.8.2,2.3.5c1,.6,1.4,1.7,1.4,3.1s-.5,3-1,4.4c-.8,2.1-2,3.9-3.1,5.3-3.2,4-4.4,5.3-7.2,8.1-3.6,3.5-6.9,5.5-8.3,5.6s-1.8,0-3.5-.4-4.1-1-6.9-1.9-1.7-.5-2.4-1.1-1.2-2.1-1.5-3.2c-.4-1.7-.7-3-.8-4.3-.4-3.1-.4-3.3-.4-5.4s.5-4.4.6-6.4c.3-3.3.7-6.6,1.2-9.8s.4-2.4.5-3.8c.6-4.4,1.9-11.1,2.4-16,.3-3.4.5-6.1.5-6.7,0-1.6-.2-3.1-.5-4.7s-.5-2.4-.5-3.4c0-1.4,1-2.2,2-3.1,1-.9,1.8-1.3,3.2-2.3,2.6-1.9,5.7-4.4,6.3-4.8.9-.6,1.9-1.3,2.8-1.5s2.4,0,2.8.3c1.3,1,1.6,3.6,1.5,5.4-.3,4.7-.9,6.3-1.4,11-.5,3.8-1.9,11.3-2.6,16.1-1.6,10.7-2.7,21.8-2.5,23.8.3,2.9.6,3.6,1.5,4.6s.7.4,1,.5Z"/><path d="m792.2,250.4c.2.3,1.1.7,2.1.9s2.4.4,3.6.2,2.1-.4,3.5-1.2c1-.7,2-1.7,3-2.3s1.7-.8,2.5-1c3.2-.7,4.8,2.4,3.6,5.5-.7,1.7-1.6,2.7-3,3.9-1.5,1.2-3.3,2.3-5.1,3.1-2.7,1.2-5.6,2.3-8.5,2.5s-3.3,0-4.7-.1-3.7-.3-4.3-.4c-2.4-.2-3.7,0-5.3-.1-.9,0-1.8-.1-2.7-.4-2.8-1-4.9-3.5-6.2-6.9-1.4-4.1-1.5-7.8-.6-12.3,1.1-4.9,3-9.6,5.3-13.7,2.4-4.3,5.3-8,9-11.3s5.6-4.9,9.4-6.6c5.3-2.4,9.4-1.5,11.6,1.4s1.9,4.6,2,7.8c0,3-.7,7.9-1.9,12.2s-2,5.3-2.8,6.6c-1.8,2.9-4.1,5.4-4.8,6.1-2,2-3.5,3.1-3.9,3.3-.9.6-1.6.8-2,1.5s.1,1.2.2,1.3Zm3.9-28.5c-.6,0-1.8.9-2.6,2s-1.8,2.3-2.4,3.6c-1,1.9-1.5,3.8-1.8,4.8-.6,2.2-1.1,3.8-1.3,5.5s0,2.3,0,2.3c.4.1,1.1.1,1.7-.5s.4-.4.7-.8.7-1.2,1.2-2c.8-1.2,1.8-2.4,2.6-3.9s1.4-2.9,1.9-4.1.8-2.3.9-3.4c.2-1.8,0-3.1-1-3.7Z"/><path d="m891.8,231.9c-.6.6-2,2.6-3,4.9s-1.2,2.8-2.4,5.5-2,4.8-3.6,7.2-2.4,2.5-3.4,3.3c-2.7,2-6.1,3.5-9.6,2-3.1-1.3-5.5-4.6-5.6-7.6s1-3.1,2.5-4.4c1.7-1.5,2.8-2.7,3.5-4.7,1.1-2.9,1.4-6.7,1.5-8.9.1-3.6-.4-4.5-2.7-5.3-.8-.3-1.6-.5-2.2-1s-1.2-2-1.2-3.3c.2-2.5,1.7-4.4,4.2-5.4.7-.3,1.3-.5,2.1-.8,1.2-.4,2.5-.7,3.5-1.1s2-1,3.2-1.3c1.1-.3,2-.5,2.8-.5,2.7.2,3.9,2.5,4,6.3.1,2.1,0,3.3.1,5.4.1,2.6,1,1.7,1.4,1.3s.5-.8.7-1.5.2-1.4.2-1.9c.2-2.1-.1-2.8-.3-5.6s0-4.2,1.1-6.3,2.3-3,3.9-4.3,2.8-2.2,4.1-2.8c1-.5,2.4-.5,3.6,0s1.6.9,2.2,1.5,3.3,4.2,2.6,7.8c-.3,1.3-.8,2.2-1.7,4.4s-.5,4,1.1,6.3c.8,1.1,1.9,5.3,0,7.8-.7.9-1.4,1.2-2.3,1.7s-2.4,1.2-3.7,1.4-2.1,0-3.1-.2c-.4-.1-1.3-.5-2.2-.5s-.9.1-1.2.5Z"/></g><path class="e" d="m185.9,139.2c1.2,3.4,3.6,6.6,6.9,7.9,2.8,1.1,6.7,1.3,9.6,0,6.9-3.2,12-10.5,13.3-17.6.3-1.7.6-4.5.6-6.3s0-2.1,0-4.1h-25c-1.7,2-3.7,4.6-4.7,7.4-1.7,4.7-1.9,9.3-.6,12.8Z"/><path class="e" d="m346.7,63.8h9.6c-1.2-.2-2-.3-4.7-.3s-4.1.2-4.9.3Z"/><path class="e" d="m885.4,126.5c-1.7,4.7-1.9,9.3-.6,12.8,1.2,3.4,3.6,6.6,6.9,7.9,2.8,1.1,6.7,1.3,9.6,0,6.9-3.2,12-10.5,13.3-17.6.3-1.7.6-4.5.6-6.3s0-2.1,0-4.1h-25c-1.8,2-3.7,4.6-4.7,7.4Z"/><path class="e" d="m101.2,42.6c-.4-7.6-5.3-14.5-15.9-15.9,0,0,0,0,0,0h-21.7s0,0,0,0v37.1h26c7.6-5.8,12-13.3,11.6-21.2Z"/><path class="g" d="m762.8,49.5c-4.8-1.2-9.4-2-13.6-2.1-6.5-.1-16.3,3.2-22.8,7.8-4.2,3-7.1,6.2-8.9,8.5h41.3c1.9-6.8,3.7-13.2,4-14.3Z"/><path class="g" d="m713.2,55.6c-1.1-3.1-2.6-6.2-4.6-8.1-8.7,1.2-41.3,5.5-49.6,6.6-.3,1.6-.7,2.9-1,4,5,.5,8.2,3,10.2,5.8h46.9c-.3-2.1-.9-5.2-1.9-8.2Z"/><path class="g" d="m820,47.4s-36,5.6-53.9,8.3c0,0,0,0,0,0-.7,2.4-1.3,4.8-1.9,7,0,0,0,.1,0,.1.9,0,3.1,0,3.1,0,.9,0,2.2.3,3.1.8h49.7c0-9.9-.1-16.4-.1-16.4Z"/><path class="g" d="m351.6,63.5c2.7,0,3.5.1,4.7.3h34.4s0,0,0,0c-.6-5.9-1.3-10.9-1.8-16.4-2.4,1.4-3.8,2.2-5.2,2.9s-2.8.8-4.2.3c-1.4-.4-3.4-1.3-7.5-1.9-6.1-.9-11-1-21-1.2-10-.3-12.2,0-19.9.7-1.7.2-7.3,1-12.4,2.7-5.7,1.8-11,4.6-13.7,6.4-2.7,1.9-3.9,2.3-7.6,6.4,0,0,0,0,0,0h49.4c.8,0,2.5-.3,4.9-.3Z"/><path class="g" d="m625.4,59.3c-13.2-9-27-13.1-43-11.6-13.1,1.2-21.8,4.5-29,7.8-6.7,3-12,6.5-14.5,8.3h92.3c-1.9-1.7-3.6-3.1-5.7-4.5Z"/><path class="i" d="m670.3,152.8c0,2.6-.9,6.2-3.5,8.1-2,1.5-9.4,4.3-10.5,4.8.9,2.3,1.5,4,2.2,5.9,23.3,0,68.9,0,68.9,0l2.2-5.8s-.3-.2-6.3-2.7c-2.8-1.1-4.7-2.2-5.8-3.6-1.7-2.2-1.8-4.9-1.9-7.2,0-12.4,0-22.2,0-33.1h-45.3c0,12.4,0,24.7,0,33.7Z"/><path class="i" d="m774.7,152.6c0,2.3-.5,4.8-1.8,6.6-1.1,1.6-3,2.7-4.3,3.2-2.8,1.1-5.1,2.1-7.8,3.4,0,0,0,0,0,.1.8,2.2,1.4,3.8,2.2,5.8h68.9c.8-2.2,1.5-3.9,2.2-5.8,0,0,0,0,0-.1-2.1-1-5.8-2.6-7.5-3.2-6-2.7-6.6-5.8-6.5-13,.1-8.4.2-19.1.2-30.4h-45.9c.2,11.2.4,22.4.4,33.5Z"/><path class="g" d="m63.7,63.8V26.7s0,0,0,0h21.7s0,0,0,0c10.6,1.4,15.5,8.4,15.9,15.9.4,7.8-4,15.4-11.6,21.2h52.1s0,0,0,0c4.7-4.7,12.4-16.4,12.4-26.3s-4.4-17.6-11.2-21.9c-5.8-3.7-12.2-4.9-19-4.9-39.4-.1-120.1,0-121.4,0,0,0,0,0,0,0-.8,2.1-1.3,3.6-2.1,5.6,0,0,0,0,0,0,2.9,1.3,4.7,2.1,7.1,3,3.2,1.3,6.8,2.9,6.8,10.9,0,7.1,0,19.5,0,33.8h0c0-.1,49.4-.1,49.4-.1Z"/><path class="i" d="m519.4,130.6c7.7,18.6,21.5,31.6,40.3,38.7,6.7,2.2,15.9,4.7,24.4,5.4,9.3.7,18.1.6,27.4-.6,8.4-1.1,18-4.2,25.3-2.6,4.3-15.1,8.4-29.8,12.8-45.2,0,0,0,0,0,0-2.4-.4-4.4-.7-6.2-1,0,0,0,0,0,0,0,0,0,0,0,0,0,.1-.1.8-.5,1.6-.4.8-1,2.3-1.8,3.6-2.5,3.9-4.8,8.4-7.9,11.8-8.8,9.6-18.7,12.7-29.5,12.7s-18.5-5.3-23.7-10.5c-6.7-7-11.1-20.2-12.6-25.4h-50.4c.6,4.4,1.5,8.8,2.6,11.6Z"/><ellipse class="g" cx="798.8" cy="21.5" rx="22.7" ry="21.2"/><path class="g" d="m502.1,53.6c0,0,0-.1,0-.1h-30.9V10.6c0,0,0-.1-.2,0-13.7,4-26.6,7.8-40,11.8,0,0,0,0,0,0,0,3,0,17.3,0,18.2s.3,8.6-4.9,14.5c-3.2,3.7-8.7,4.9-10,5.1-2.2.4-3.8.3-5,.3,0,0-.1,0-.1,0v3.2h88.4l2.9-10.2Z"/><path class="i" d="m14.4,149.3c0,3.3,0,7.7-1.9,10-1.8,2.3-5.2,3.5-6.2,3.9-2,.9-3.7,1.6-5.9,2.6.9,2.2,1.5,4,2.2,5.8h73.1c.8-2.1,1.4-3.7,2.2-5.8-2.5-1.1-7.2-2.9-9.1-3.9s-5-3.1-5-9c0-8.4,0-22.3,0-33.9H14.3c0,14.3,0,25.8,0,30.3Z"/><path class="g" d="m258.4,60c-2.9-2.9-4-3.8-7.5-5.9-8.5-4.9-21.8-6.3-33.4-6.6-8.1-.2-17.3.3-25.3,1.7-4.4.7-10.7,1.7-16.6,3-10.9,2.4-21.3,5.4-21.3,5.4l-.7,6.1h107.3c-1-2-1.9-3.2-2.5-3.8Z"/><path class="i" d="m424.2,143.1c.3,5.8,1.7,12.5,4.8,17.8,4.2,7.2,11.2,11.5,17.5,13.1,8.6,2.2,17,2.3,25.8,1.3,7.2-.8,17.2-2.7,24.5-5.8,0,0,12.7-30,14.4-34.1-2.2-.8-4-1.6-5.9-2.3-.7,1.1-2.6,4.1-2.7,4.3,0,.1-2.8,4.7-4.5,7-2.2,3.1-4.3,5.2-4.8,5.7-.7.7-4.5,4-8.4,4.8-3.3.7-6.8-.3-8.9-2.1-4.6-3.9-4.9-10.5-4.9-11.6,0-5.8,0-13.6,0-22h-46.9c0,10.9,0,20.3,0,24Z"/><path class="i" d="m309.7,119.2c4,1.7,6.4,2.5,13.7,4.5,7.4,2,16,3.3,23.9,6s11.8,7,11.8,13.1-3.2,8.3-7.1,10.2c-10,4.9-21.4,4.6-31.9,1.8-12.3-3.2-19.4-12.2-24-23.6-1.2-2.8-2.4-7.3-2.8-9.2,0,0-5.3,2.2-6.9,2.9.9,16.1,1.8,31.2,2.7,47.1,0,0,0,0,0,0,2-.6,2.6-1,4.4-1.5,1-.3,4.4-1.7,6.9-1.7s5.6,1.3,7.6,2.1c4.6,1.9,9.5,2.8,14.5,3.3,5,.6,9.8.8,14.9,1,7.4.2,14.7.5,22-.4,10.5-1.1,25.5-8.1,34.3-19.1,7.7-9.9,11.4-21.7,10.3-33.6,0-.8-.3-2-.5-3.2h-94c0,0,.1,0,.2,0Z"/><path class="g" d="m957.3,60c-2.9-2.9-4-3.8-7.5-5.9-8.5-4.9-21.8-6.3-33.4-6.6-8.1-.2-17.3.3-25.3,1.7-4.4.7-10.7,1.7-16.6,3-10.9,2.4-21.3,5.4-21.3,5.4l-.7,6.1h107.3c-1-2-1.9-3.2-2.5-3.8Z"/><path class="i" d="m968.9,161.5c-.9-.4-4.8-2-6.5-8.3-.6-2-.5-4.8-.5-4.8,0,0-.1-13.2-.2-29.3h-46.5c0,2,0,3.6,0,4.1,0,1.9-.3,4.6-.6,6.3-1.3,7.1-6.3,14.4-13.3,17.6-2.8,1.3-6.7,1.1-9.6,0-3.3-1.3-5.7-4.5-6.9-7.9-1.3-3.5-1.1-8,.6-12.8,1-2.8,3-5.5,4.7-7.4h-45c-4.6,6.9-7.5,15.4-7.5,23.9s4.7,19.9,13.2,26,22.9,7.9,36.2,5.6c6-1,14-4,19.6-7.3,5.1-3.1,8-6.4,11.7-10.5,1.4,5.4,4.2,11.3,7.2,14.9h50.9c.4-1.1,2-5.2,2.2-5.8-1.7-.7-8.2-3.7-9.8-4.3Z"/><path class="i" d="m216.3,123.2c0,1.9-.3,4.6-.6,6.3-1.3,7.1-6.3,14.4-13.3,17.6-2.8,1.3-6.7,1.1-9.6,0-3.3-1.3-5.7-4.5-6.9-7.9-1.3-3.5-1.1-8,.6-12.8,1-2.8,3-5.5,4.7-7.4h-45c-4.6,6.9-7.5,15.4-7.5,23.8s4.7,19.9,13.2,26c8.5,6,22.9,7.9,36.2,5.6,6-1,14-4,19.6-7.3,5.1-3.1,8-6.4,11.7-10.5,1.4,5.4,4.2,11.3,7.2,14.9h50.9c.4-1.1,2-5.2,2.2-5.8-1.7-.7-8.2-3.7-9.8-4.3-.9-.4-4.8-2-6.5-8.3-.6-2-.5-4.8-.5-4.8,0,0-.1-13.2-.2-29.3h-46.5c0,2,0,3.6,0,4.1Z"/><path class="h" d="m14.2,119.1h0c0-16.7,0-37.3,0-55.1v55.1Z"/><path class="h" d="m717.5,63.8h-2.4c.3,1.8.3,2.9.3,2.9,0,0,.7-1.2,2-2.9Z"/><path class="h" d="m961.9,73.9c-.3,11.8-.3,29.8-.2,45.2h10.2v-55.3h-12.1c.1.3.3.6.4.9,1.2,2.5,1.8,5.5,1.7,9.2Z"/><path class="h" d="m902,110.8c-3,1.6-5.5,2.4-9.5,6-.6.5-1.5,1.3-2.3,2.3h25c0-5.1,0-12.9,0-12.9-4,.7-10.9,3.4-13.1,4.6Z"/><path class="h" d="m263,73.9c0-3.7-.5-6.7-1.7-9.2-.1-.3-.3-.6-.4-.8h-107.3l-4,33.1,8-1.6c1-3.4,2.9-8.4,4.6-10.9,1.6-2.6,4.1-6.4,10.1-11.1,6.4-4.9,13.7-7.2,20.8-7.8,3.3-.3,9.2-.6,14.2,2.1s8.1,8.3,8.9,14.9c.2,1.7.3,3.6.1,5-1.6.1-7.6,1.1-17.5,3.5-7.1,1.7-14.2,3.9-21.6,6.5-4.5,1.6-11.3,4.3-17.3,8.1-3.7,2.4-7,5.3-9.6,8.2-1.4,1.6-2.8,3.3-4,5.2h45c.9-1,1.7-1.8,2.3-2.3,4.1-3.5,6.6-4.4,9.5-6,2.2-1.2,9.1-3.9,13.1-4.6,0,0,0,7.8,0,12.9h46.5c0-15.3,0-33.3.2-45.2Z"/><path class="h" d="m892.5,116.7c4.1-3.5,6.6-4.4,9.5-6,2.2-1.2,9.1-3.9,13.1-4.6,0,0,0,7.8,0,12.9h46.5c0-15.3,0-33.3.2-45.2,0-3.7-.5-6.7-1.7-9.2-.1-.3-.3-.6-.4-.9h-107.3l-4,33.1,8-1.6c1-3.4,2.9-8.4,4.6-10.9,1.6-2.6,4.1-6.4,10.1-11.1,6.4-4.9,13.7-7.2,20.8-7.8,3.3-.3,9.2-.6,14.2,2.1,5,2.7,8.1,8.3,8.9,14.9.2,1.7.3,3.6.1,5-1.6.1-7.6,1.1-17.5,3.5-7.1,1.7-14.2,3.9-21.6,6.5-4.5,1.6-11.3,4.3-17.3,8.1-3.7,2.4-7,5.3-9.6,8.2-1.4,1.6-2.8,3.3-4,5.1h45c.9-1,1.7-1.8,2.3-2.3Z"/><path class="h" d="m572.2,115.5c24.2-5.7,74.7-17.6,77.9-18.5,0-.2,0-.7-.1-1.4-.1-.5-.3-1.1-.5-1.7-.6-1.8-1.6-4.1-2.8-6.8-2.2-4.5-5.4-10.5-8.6-15.1-2.3-3.4-4.4-5.7-6.6-7.9-.1-.1-.3-.2-.4-.4h-92.3c-.2.1-.3.2-.5.4-4.9,4.1-9.2,8.3-12.6,13.3-4.3,6.3-7.2,13.4-8.3,17.3-1.9,7.1-1.7,12.7-1.3,18.6.1,1.8.3,3.8.6,5.7h50.4c-.4-1.4-.6-2.2-.6-2.2,0,0,4.7-1.2,5.6-1.4Zm-7.7-25.9c.8-5.8,4-12.5,6.1-15.1s4.1-4.6,7.8-5.7c3.7-1.2,7.1-.8,10.8.6s6.9,5.5,7.7,7c2,3.7,4.8,11.4,5.8,14.7-13.3,3.1-25.1,5.9-38.5,9.1-.3-4.2,0-7.3.4-10.5Z"/><path class="h" d="m88.5,91.8c14.2-4.7,29.7-11.3,34.6-14,9.2-5.2,13.9-9.3,18.6-14h-52.1c-1.2.9-2.4,1.7-3.7,2.5-9.8,6-22.2,12.3-22.2,12.3,0,0,0,0,0,0v-14.8H14.2c0,17.9,0,38.5,0,55.3h49.4c0-11.2,0-20.3,0-20.3,0,0,11.9-2.6,24.9-7Z"/><path class="h" d="m820.1,63.8h-49.7c0,0,.1,0,.2,0,.9.5,2.5,1.4,3.8,4.5.2.5.4,1.6.4,2.6,0,2.4-.5,22.3-.5,32.1,0,5.3,0,10.6.1,15.9h45.9c0-19.6,0-41-.1-55.3Z"/><path class="h" d="m356.5,63.8c1.4.2,2.4.4,3.9.9.5.2,4.6,1.3,7.7,3.4,2,1.3,4.8,3,6.9,4.8,1.5,1.3,2.9,2.4,4.2,3.9,1,1.1,2,2.2,3,3.4,1.6,2,2.8,3.8,3.9,6,2.4-.5,4.8-.9,7-1.4-.8-6.6-1.6-14.8-2.3-21.1h-34.4c0,0,.1,0,.2,0Z"/><path class="h" d="m397.8,106.3c-4.5-6.3-14.1-11.9-22-15-9.5-3.6-17.9-5.6-27.5-8.8-3.2-1.1-6.4-2.2-9.4-3.9-1.4-.8-2.4-1.5-3.4-2.9-.4-.5-.9-1.7-.9-3.2s0-1.9.5-2.8c.8-1.3.9-1.8,2.8-3.2,2-1.4,5.4-2.3,8.4-2.8,0,0,.2,0,.4,0h-49.4c-1.9,2.1-5.6,6.6-7.5,12.1-2,5.6-2.6,11.6-2,16.8.6,5.1,2.4,9.9,5.1,13.8,4,5.7,9.9,9.8,16.5,12.6h94c-.2-.9-.4-1.8-.6-2.4-.4-1.6-1.6-5.4-5.1-10.3Z"/><path class="h" d="m718.1,88.5c.9-2.7,2.7-6.6,5.2-9,2.5-2.4,6-4.1,10.2-4.3,3.4-.1,7.1.5,10.4,1.7,4.9,1.9,8.8,4.3,9.9,5.1.4-1.6,2.9-10.3,5.1-18.3h-41.3c-1.4,1.7-2,2.9-2,2.9,0,0,0-1.1-.3-2.9h-46.9s0,0,0,0c1.2,1.9,2,4.1,2,6.8s0,25.2,0,48.4h45.3c0-4.2,0-8.7,0-13.5,0-1.7.8-11.8,2.6-17.1Z"/><path class="h" d="m471.1,70.9h26.2s2-7.1,2-7.1h-88.4v7.1c4.3,0,8.9,0,13.3,0,0,1,0,27.2,0,48.2h46.9c0-22.3,0-48.1,0-48.1Z"/><path class="f" d="m762.8,49.5c-.6,2.4-8.2,29.6-9.1,32.6-1.1-.8-4.9-3.2-9.9-5.1s-7-1.8-10.4-1.7-7.7,1.9-10.2,4.3-4.3,6.3-5.2,9c-1.8,5.3-2.6,15.4-2.6,17.1,0,17.2,0,29.4,0,46.6,0,2.3.2,5,1.9,7.2s3,2.5,5.8,3.6c6,2.5,6.3,2.7,6.3,2.7l-2.2,5.8s-45.6,0-68.9,0c-.7-1.9-1.3-3.6-2.2-5.9,1.1-.5,8.5-3.4,10.5-4.8,2.6-2,3.5-5.5,3.5-8.1,0-25.9,0-79.3,0-82.1s-.8-4.9-2-6.8c-2-2.8-5.2-5.3-10.3-5.8.3-1.1.6-2.4,1-4,8.3-1.1,41-5.4,49.6-6.6,2,1.9,3.6,5,4.6,8.1,1.9,5.5,2.3,11.1,2.3,11.1,0,0,3.5-6.1,10.9-11.4s16.3-8,22.8-7.8c4.2,0,8.8.9,13.6,2.1Zm-196.3,67.4s4.7,18.7,13.2,27.6c5.1,5.2,12.9,10.5,23.7,10.5s20.7-3.1,29.5-12.7c3.1-3.4,5.4-7.9,7.9-11.8.8-1.2,1.5-2.8,1.8-3.6s.5-1.4.5-1.6c0,0,0,0,0,0,0,0,0,0,0,0,1.8.3,3.8.6,6.2,1s0,0,0,0c-4.4,15.5-8.5,30.1-12.8,45.2-7.3-1.6-17,1.5-25.3,2.6-9.3,1.2-18.1,1.3-27.4.6-8.5-.7-17.7-3.1-24.4-5.4-18.7-7.1-32.6-20.1-40.3-38.7-1.7-4-2.8-11.4-3.2-17.3s-.6-11.4,1.3-18.6,4-11,8.3-17.3,7.7-9.2,12.6-13.3c2.2-1.7,7.8-5.4,15-8.7s15.9-6.5,29-7.8c16-1.5,29.8,2.6,43,11.6,2.3,1.5,4.1,3,6.1,4.9,2.1,2.2,4.3,4.5,6.6,7.9s6.4,10.6,8.6,15.1,2.3,4.9,2.8,6.8c.2.6.4,1.2.5,1.7s.2,1.2.1,1.4c-3.2.8-53.7,12.7-77.9,18.5-.9.2-5.6,1.4-5.6,1.4Zm36.1-25.9c-1-3.4-3.8-11-5.8-14.7s-4-5.5-7.7-7-7.1-1.8-10.8-.6-5.6,3.2-7.8,5.7-5.3,9.3-6.1,15.1c-.5,3.3-.6,6.3-.4,10.5,13.4-3.2,25.2-5.9,38.5-9.1Zm-109.3,59c-.7.7-4.5,4-8.4,4.8-3.3.7-6.8-.3-8.9-2.1-4.6-3.9-4.9-10.5-4.9-11.6,0-21.2,0-70.2,0-70.2h26.2s4.9-17.4,4.9-17.4c0,0,0-.1,0-.1h-30.9V10.6c0,0,0-.1-.2,0-13.7,4-26.6,7.8-40,11.8s0,0,0,0c0,3,0,17.3,0,18.2s.3,8.6-4.9,14.5-8.7,4.9-10,5.1c-2.2.4-3.8.3-5,.3,0,0-.1,0-.1,0v10.3c4.3,0,8.9,0,13.3,0,0,1.6,0,61.2,0,72.2.3,5.8,1.7,12.5,4.8,17.8s11.2,11.5,17.5,13.1c8.6,2.2,17,2.3,25.8,1.3,7.2-.8,17.2-2.7,24.5-5.8,0,0,12.7-30,14.4-34.1-2.2-.8-4-1.6-5.9-2.3-.7,1.1-2.6,4.1-2.7,4.3s-2.8,4.7-4.5,7c-2.2,3.1-4.3,5.2-4.8,5.7Zm-90.3-33.4c-.4-1.6-1.6-5.4-5.1-10.3-4.5-6.3-14.1-11.9-22-15-9.5-3.6-17.9-5.6-27.5-8.8-3.2-1.1-6.4-2.2-9.4-3.9-1.4-.8-2.4-1.5-3.4-2.9s-.9-1.7-.9-3.2,0-1.9.5-2.8c.8-1.3.9-1.8,2.8-3.2s5.4-2.3,8.4-2.8c.5,0,2.4-.3,5.3-.3s3.6.1,4.9.4,2.4.4,3.9.9,4.6,1.3,7.7,3.4,4.8,3,6.9,4.8,2.9,2.4,4.2,3.9,2,2.2,3,3.4c1.6,2,2.8,3.8,3.9,6,2.4-.5,4.8-.9,7-1.4-.8-6.7-1.6-14.8-2.3-21.1-.6-5.9-1.3-10.9-1.8-16.4-2.4,1.4-3.8,2.2-5.2,2.9s-2.8.8-4.2.3-3.4-1.3-7.5-1.9c-6.1-.9-11-1-21-1.2s-12.2,0-19.9.7-7.3,1-12.4,2.7-11,4.6-13.7,6.4c-2.7,1.9-3.9,2.3-7.6,6.4s-5.6,6.6-7.6,12.2-2.6,11.6-2,16.8c.6,5.1,2.4,9.9,5.1,13.8,4,5.7,10.1,9.9,16.8,12.7,4,1.7,6.4,2.5,13.7,4.5s16,3.3,23.9,6c7.8,2.7,11.8,7,11.8,13.1s-3.2,8.3-7.1,10.2c-10,4.9-21.4,4.6-31.9,1.8-12.3-3.2-19.4-12.2-24-23.6-1.2-2.8-2.4-7.3-2.8-9.2,0,0-5.3,2.2-6.9,2.9.9,16.1,1.8,31.2,2.7,47.1,0,0,0,0,0,0,2-.6,2.6-1,4.4-1.5,1-.3,4.4-1.7,6.9-1.7s5.6,1.3,7.6,2.1c4.6,1.9,9.5,2.8,14.5,3.3,5,.6,9.8.8,14.9,1,7.4.2,14.7.5,22-.4,10.5-1.1,25.5-8.1,34.3-19.1,7.7-9.9,11.4-21.7,10.3-33.6-.1-1.4-.7-4.1-1.1-5.7Zm-123.2,49.1c-.2.7-1.8,4.7-2.2,5.8h-50.9c-3-3.6-5.8-9.5-7.2-14.9-3.7,4.1-6.6,7.4-11.7,10.5-5.6,3.4-13.6,6.3-19.6,7.3-13.3,2.2-27.7.4-36.2-5.6s-13.2-15.2-13.2-26,4.7-21.5,11.6-29,5.9-5.8,9.6-8.2c6-3.8,12.8-6.5,17.3-8.1,7.4-2.7,14.5-4.8,21.6-6.5,9.9-2.4,15.9-3.4,17.5-3.5.1-1.4,0-3.4-.1-5-.8-6.5-3.9-12.2-8.9-14.9s-10.9-2.4-14.2-2.1c-7.1.7-14.4,2.9-20.8,7.8-6.1,4.7-8.5,8.5-10.1,11.1s-3.6,7.5-4.6,10.9l-8,1.6,4.8-39.2s10.4-3,21.3-5.4,12.2-2.3,16.6-3c8-1.3,17.2-1.9,25.3-1.7,11.6.3,24.9,1.7,33.4,6.6,3.5,2.1,4.5,3,7.5,5.9.6.6,1.7,2.1,2.9,4.6s1.8,5.5,1.7,9.2c-.5,24.3,0,74.5,0,74.5,0,0,0,2.8.5,4.8,1.8,6.3,5.6,7.9,6.5,8.3,1.5.6,8.1,3.6,9.8,4.3Zm-63.5-42.6c0-1.9,0-17.1,0-17.1-4,.7-10.9,3.4-13.1,4.6-3,1.6-5.5,2.4-9.5,6s-5.5,5.5-7.1,9.7-1.9,9.3-.6,12.8c1.2,3.4,3.6,6.6,6.9,7.9s6.7,1.3,9.6,0c6.9-3.2,12-10.5,13.3-17.6.3-1.7.6-4.5.6-6.3Zm-62.2-85.7c0,9.9-7.7,21.6-12.4,26.3s-9.4,8.8-18.6,14c-4.8,2.7-20.4,9.3-34.6,14-13,4.3-24.9,7-24.9,7,0,0,.1,37.6.1,54.2,0,5.9,3.1,8,5,9s6.6,2.8,9.1,3.9c-.8,2.1-1.4,3.7-2.2,5.8H2.5c-.7-1.8-1.3-3.6-2.2-5.8,2.2-1,3.9-1.7,5.9-2.6,1-.4,4.4-1.6,6.2-3.9,1.8-2.3,1.9-6.7,1.9-10,0-13.9-.1-95.5-.2-119.2,0-8-3.7-9.6-6.8-10.9-2.3-1-4.1-1.7-7.1-3,0,0,0,0,0,0,.8-2,1.3-3.5,2.1-5.6,0,0,0,0,0,0,1.4,0,82,0,121.4,0,6.7,0,13.1,1.3,19,4.9,6.8,4.3,11.2,12,11.2,21.9Zm-52.9,5.2c-.4-7.6-5.3-14.5-15.9-15.9,0,0,0,0,0,0h-21.7s0,0,0,0v51.9s0,0,0,0c0,0,12.4-6.3,22.2-12.3,9.8-6,15.7-14.7,15.3-23.7Zm718.8,106.9c.6-33.1,0-102.1,0-102.1,0,0-36,5.6-53.9,8.3,0,0,0,0,0,0-.7,2.4-1.3,4.8-1.9,7s0,.1,0,.1c.9,0,3.1,0,3.1,0,1,0,2.4.4,3.3.9s2.5,1.4,3.8,4.5c.2.5.4,1.6.4,2.6,0,2.4-.5,22.3-.5,32.1,0,16.5.6,33,.5,49.5,0,2.3-.5,4.8-1.8,6.6s-3,2.7-4.3,3.2c-2.8,1.1-5.1,2.1-7.8,3.4s0,0,0,.1c.8,2.2,1.4,3.8,2.2,5.8h68.9c.8-2.2,1.5-3.9,2.2-5.8,0,0,0,0,0-.1-2.1-1-5.8-2.6-7.5-3.2-6-2.7-6.6-5.8-6.5-13ZM798.8.3c-12.5,0-22.7,9.5-22.7,21.2s10.1,21.2,22.7,21.2,22.7-9.5,22.7-21.2S811.3.3,798.8.3Zm179.9,165.5c-.2.7-1.8,4.7-2.2,5.8h-50.9c-3-3.6-5.8-9.5-7.2-14.9-3.7,4.1-6.6,7.4-11.7,10.5s-13.6,6.3-19.6,7.3c-13.3,2.2-27.7.4-36.2-5.6s-13.2-15.2-13.2-26,4.7-21.5,11.6-29c2.6-2.9,5.9-5.8,9.6-8.2,6-3.8,12.8-6.5,17.3-8.1,7.4-2.7,14.5-4.8,21.6-6.5,9.9-2.4,15.9-3.4,17.5-3.5.1-1.4,0-3.4-.1-5-.8-6.5-3.9-12.2-8.9-14.9s-10.9-2.4-14.2-2.1c-7.1.7-14.4,2.9-20.8,7.8-6.1,4.7-8.5,8.5-10.1,11.1s-3.6,7.5-4.6,10.9l-8,1.6,4.8-39.2s10.4-3,21.3-5.4,12.2-2.3,16.6-3c8-1.3,17.2-1.9,25.3-1.7,11.6.3,24.9,1.7,33.4,6.6,3.5,2.1,4.5,3,7.5,5.9.6.6,1.7,2.1,2.9,4.6s1.8,5.5,1.7,9.2c-.5,24.3,0,74.5,0,74.5,0,0,0,2.8.5,4.8,1.8,6.3,5.6,7.9,6.5,8.3,1.5.6,8.1,3.6,9.8,4.3Zm-63.5-42.6c0-1.9,0-17.1,0-17.1-4,.7-10.9,3.4-13.1,4.6-3,1.6-5.5,2.4-9.5,6s-5.5,5.5-7.1,9.7-1.9,9.3-.6,12.8c1.2,3.4,3.6,6.6,6.9,7.9s6.7,1.3,9.6,0c6.9-3.2,12-10.5,13.3-17.6.3-1.7.6-4.5.6-6.3Z"/></g></svg>